<svg width="221" height="29" viewBox="0 0 221 29" fill="none" xmlns="http://www.w3.org/2000/svg">
<path d="M11.6295 20.36C9.44949 20.36 7.54949 19.94 5.92949 19.1C4.30949 18.26 3.06949 17.12 2.20949 15.68C1.36949 14.24 0.949492 12.63 0.949492 10.85C0.949492 8.91 1.43949 7.19 2.41949 5.69C3.41949 4.19 4.77949 3.02 6.49949 2.18C8.23949 1.34 10.1995 0.919999 12.3795 0.919999C13.3595 0.919999 14.2895 1.02 15.1695 1.22C16.0695 1.4 16.7995 1.66 17.3595 2C17.5195 2.1 17.6095 2.19 17.6295 2.27C17.6695 2.33 17.6995 2.47 17.7195 2.69L18.0795 6.05C18.0795 6.11 18.0195 6.15 17.8995 6.17C17.7995 6.17 17.7395 6.14 17.7195 6.08C17.2795 4.64 16.4795 3.53 15.3195 2.75C14.1795 1.97 12.7695 1.58 11.0895 1.58C8.56949 1.58 6.61949 2.31 5.23949 3.77C3.85949 5.23 3.16949 7.23 3.16949 9.77C3.16949 11.71 3.55949 13.45 4.33949 14.99C5.13949 16.51 6.23949 17.7 7.63949 18.56C9.03949 19.42 10.6095 19.85 12.3495 19.85C13.3695 19.85 14.1595 19.76 14.7195 19.58C15.2795 19.4 15.6895 19.05 15.9495 18.53C16.2095 18.01 16.3395 17.24 16.3395 16.22C16.3395 15.18 16.2695 14.46 16.1295 14.06C16.0095 13.64 15.7195 13.36 15.2595 13.22C14.8195 13.08 14.0495 13.01 12.9495 13.01C12.8295 13.01 12.7695 12.93 12.7695 12.77C12.7695 12.71 12.7795 12.66 12.7995 12.62C12.8395 12.56 12.8795 12.53 12.9195 12.53C14.4795 12.63 15.7395 12.68 16.6995 12.68C17.6395 12.68 18.6195 12.65 19.6395 12.59C19.6795 12.59 19.7095 12.62 19.7295 12.68C19.7695 12.72 19.7895 12.76 19.7895 12.8C19.7895 12.94 19.7395 13.01 19.6395 13.01C19.1595 12.99 18.8195 13.06 18.6195 13.22C18.4195 13.36 18.2895 13.66 18.2295 14.12C18.1695 14.58 18.1395 15.38 18.1395 16.52C18.1395 17.42 18.1695 18.06 18.2295 18.44C18.3095 18.82 18.3495 19.06 18.3495 19.16C18.3495 19.28 18.3295 19.36 18.2895 19.4C18.2495 19.44 18.1595 19.48 18.0195 19.52C15.5995 20.08 13.4695 20.36 11.6295 20.36ZM41.3855 19.64C41.4255 19.64 41.4455 19.7 41.4455 19.82C41.4455 19.94 41.4255 20 41.3855 20H37.5155C37.0155 20 36.0755 19.15 34.6955 17.45C33.3355 15.73 31.6755 13.34 29.7155 10.28C29.2355 10.42 28.6955 10.49 28.0955 10.49C27.7155 10.49 27.2655 10.47 26.7455 10.43V17.57C26.7455 18.19 26.8055 18.64 26.9255 18.92C27.0455 19.2 27.2755 19.39 27.6155 19.49C27.9755 19.59 28.5355 19.64 29.2955 19.64C29.3555 19.64 29.3855 19.7 29.3855 19.82C29.3855 19.94 29.3555 20 29.2955 20C28.6755 20 28.1855 19.99 27.8255 19.97L25.7555 19.94L23.7155 19.97C23.3555 19.99 22.8455 20 22.1855 20C22.1455 20 22.1255 19.94 22.1255 19.82C22.1255 19.7 22.1455 19.64 22.1855 19.64C22.9455 19.64 23.5055 19.59 23.8655 19.49C24.2255 19.37 24.4755 19.17 24.6155 18.89C24.7555 18.61 24.8255 18.17 24.8255 17.57V3.68C24.8255 3.08 24.7555 2.64 24.6155 2.36C24.4955 2.08 24.2555 1.89 23.8955 1.79C23.5555 1.67 23.0055 1.61 22.2455 1.61C22.1855 1.61 22.1555 1.55 22.1555 1.43C22.1555 1.31 22.1855 1.25 22.2455 1.25L23.7155 1.28C24.5555 1.32 25.2355 1.34 25.7555 1.34C26.1155 1.34 26.4555 1.33 26.7755 1.31C27.0955 1.29 27.3755 1.27 27.6155 1.25C28.2555 1.19 28.8355 1.16 29.3555 1.16C30.9755 1.16 32.2255 1.49 33.1055 2.15C33.9855 2.81 34.4255 3.73 34.4255 4.91C34.4255 5.87 34.1455 6.78 33.5855 7.64C33.0255 8.48 32.2855 9.15 31.3655 9.65C33.0655 12.19 34.4955 14.18 35.6555 15.62C36.8155 17.04 37.8455 18.07 38.7455 18.71C39.6455 19.33 40.5255 19.64 41.3855 19.64ZM26.7455 9.68C27.2455 9.76 27.8355 9.8 28.5155 9.8C29.8955 9.8 30.8855 9.51 31.4855 8.93C32.0855 8.33 32.3855 7.34 32.3855 5.96C32.3855 3.06 31.1655 1.61 28.7255 1.61C28.1855 1.61 27.7755 1.66 27.4955 1.76C27.2355 1.84 27.0455 2.03 26.9255 2.33C26.8055 2.61 26.7455 3.08 26.7455 3.74V9.68ZM62.0511 19.64C62.1311 19.64 62.1711 19.7 62.1711 19.82C62.1711 19.94 62.1311 20 62.0511 20C61.6711 20 61.0811 19.98 60.2811 19.94C59.4811 19.9 58.9011 19.88 58.5411 19.88C58.1011 19.88 57.5411 19.9 56.8611 19.94C56.2211 19.98 55.7311 20 55.3911 20C55.3111 20 55.2711 19.94 55.2711 19.82C55.2711 19.7 55.3111 19.64 55.3911 19.64C56.1311 19.64 56.6711 19.57 57.0111 19.43C57.3511 19.29 57.5211 19.05 57.5211 18.71C57.5211 18.43 57.3911 18 57.1311 17.42L53.6811 10.07H48.0111L45.4311 16.19C45.1511 16.87 45.0111 17.43 45.0111 17.87C45.0111 19.05 45.9911 19.64 47.9511 19.64C48.0511 19.64 48.1011 19.7 48.1011 19.82C48.1011 19.94 48.0511 20 47.9511 20C47.5911 20 47.0711 19.98 46.3911 19.94C45.6311 19.9 44.9711 19.88 44.4111 19.88C43.8911 19.88 43.2911 19.9 42.6111 19.94C42.0111 19.98 41.5111 20 41.1111 20C41.0111 20 40.9611 19.94 40.9611 19.82C40.9611 19.7 41.0111 19.64 41.1111 19.64C41.6711 19.64 42.1411 19.54 42.5211 19.34C42.9211 19.12 43.2911 18.75 43.6311 18.23C43.9911 17.69 44.3811 16.92 44.8011 15.92L51.1311 0.98C51.1711 0.919999 51.2411 0.889999 51.3411 0.889999C51.4411 0.889999 51.5011 0.919999 51.5211 0.98L58.6011 15.89C59.2811 17.37 59.8611 18.37 60.3411 18.89C60.8211 19.39 61.3911 19.64 62.0511 19.64ZM48.2811 9.44H53.3811L50.6811 3.74L48.2811 9.44ZM83.2655 1.25C83.3255 1.25 83.3555 1.31 83.3555 1.43C83.3555 1.55 83.3255 1.61 83.2655 1.61C82.4255 1.61 81.8155 1.84 81.4355 2.3C81.0555 2.76 80.8655 3.51 80.8655 4.55V20.36C80.8655 20.4 80.8155 20.43 80.7155 20.45C80.6155 20.47 80.5455 20.46 80.5055 20.42L66.7055 3.71L66.4355 3.41V16.73C66.4355 17.77 66.6155 18.52 66.9755 18.98C67.3555 19.42 67.9555 19.64 68.7755 19.64C68.8355 19.64 68.8655 19.7 68.8655 19.82C68.8655 19.94 68.8355 20 68.7755 20C68.2755 20 67.8955 19.99 67.6355 19.97L66.1355 19.94L64.6055 19.97C64.3255 19.99 63.9155 20 63.3755 20C63.3355 20 63.3155 19.94 63.3155 19.82C63.3155 19.7 63.3355 19.64 63.3755 19.64C64.2355 19.64 64.8455 19.42 65.2055 18.98C65.5655 18.52 65.7455 17.77 65.7455 16.73V2.69C64.9655 1.97 64.1755 1.61 63.3755 1.61C63.3155 1.61 63.2855 1.55 63.2855 1.43C63.2855 1.31 63.3155 1.25 63.3755 1.25L64.4855 1.28C64.7255 1.3 65.0555 1.31 65.4755 1.31C65.9155 1.31 66.2755 1.3 66.5555 1.28C66.8355 1.26 67.0555 1.25 67.2155 1.25C67.3755 1.25 67.4855 1.29 67.5455 1.37C67.6255 1.43 67.7455 1.58 67.9055 1.82C68.1455 2.18 68.3855 2.51 68.6255 2.81L80.1755 17V4.55C80.1755 3.51 79.9955 2.76 79.6355 2.3C79.2955 1.84 78.7155 1.61 77.8955 1.61C77.8555 1.61 77.8355 1.55 77.8355 1.43C77.8355 1.31 77.8555 1.25 77.8955 1.25L79.0655 1.28C79.6655 1.32 80.1555 1.34 80.5355 1.34C80.8955 1.34 81.3955 1.32 82.0355 1.28L83.2655 1.25ZM89.9124 17.57C89.9124 18.17 89.9724 18.62 90.0924 18.92C90.2124 19.2 90.4424 19.39 90.7824 19.49C91.1424 19.59 91.7024 19.64 92.4624 19.64C92.5224 19.64 92.5524 19.7 92.5524 19.82C92.5524 19.94 92.5224 20 92.4624 20C91.8624 20 91.3824 19.99 91.0224 19.97L88.8924 19.94L86.8224 19.97C86.4624 19.99 85.9724 20 85.3524 20C85.2924 20 85.2624 19.94 85.2624 19.82C85.2624 19.7 85.2924 19.64 85.3524 19.64C86.1124 19.64 86.6624 19.59 87.0024 19.49C87.3624 19.39 87.6024 19.2 87.7224 18.92C87.8624 18.62 87.9324 18.17 87.9324 17.57V3.68C87.9324 3.08 87.8624 2.64 87.7224 2.36C87.6024 2.08 87.3624 1.89 87.0024 1.79C86.6624 1.67 86.1124 1.61 85.3524 1.61C85.2924 1.61 85.2624 1.55 85.2624 1.43C85.2624 1.31 85.2924 1.25 85.3524 1.25L86.8224 1.28C87.6624 1.32 88.3524 1.34 88.8924 1.34C89.4924 1.34 90.2124 1.32 91.0524 1.28L92.4624 1.25C92.5224 1.25 92.5524 1.31 92.5524 1.43C92.5524 1.55 92.5224 1.61 92.4624 1.61C91.7224 1.61 91.1724 1.67 90.8124 1.79C90.4724 1.91 90.2324 2.12 90.0924 2.42C89.9724 2.7 89.9124 3.14 89.9124 3.74V17.57ZM98.2533 4.76C98.2533 5.54 98.4433 6.22 98.8233 6.8C99.2033 7.38 99.6633 7.87 100.203 8.27C100.743 8.65 101.503 9.14 102.483 9.74C103.523 10.36 104.333 10.88 104.913 11.3C105.493 11.72 105.983 12.26 106.383 12.92C106.803 13.56 107.013 14.33 107.013 15.23C107.013 16.19 106.773 17.06 106.293 17.84C105.813 18.62 105.103 19.24 104.163 19.7C103.243 20.14 102.133 20.36 100.833 20.36C99.2933 20.36 97.8833 20.01 96.6033 19.31C96.5033 19.25 96.4333 19.18 96.3933 19.1C96.3733 19.02 96.3533 18.9 96.3333 18.74L95.9433 14.66C95.9233 14.58 95.9633 14.53 96.0633 14.51C96.1833 14.49 96.2533 14.52 96.2733 14.6C96.5933 16.04 97.1833 17.28 98.0433 18.32C98.9233 19.36 100.083 19.88 101.523 19.88C102.523 19.88 103.363 19.61 104.043 19.07C104.743 18.51 105.093 17.63 105.093 16.43C105.093 15.53 104.893 14.75 104.493 14.09C104.093 13.43 103.603 12.89 103.023 12.47C102.463 12.03 101.693 11.52 100.713 10.94C99.7533 10.36 98.9933 9.86 98.4333 9.44C97.8933 9.02 97.4333 8.49 97.0533 7.85C96.6733 7.21 96.4833 6.46 96.4833 5.6C96.4833 4.6 96.7433 3.75 97.2633 3.05C97.8033 2.33 98.4933 1.8 99.3333 1.46C100.193 1.1 101.103 0.919999 102.063 0.919999C103.243 0.919999 104.413 1.16 105.573 1.64C105.873 1.74 106.023 1.91 106.023 2.15L106.233 5.6C106.233 5.68 106.183 5.72 106.083 5.72C105.983 5.72 105.923 5.68 105.903 5.6C105.743 4.56 105.313 3.6 104.613 2.72C103.913 1.82 102.903 1.37 101.583 1.37C100.463 1.37 99.6233 1.7 99.0633 2.36C98.5233 3 98.2533 3.8 98.2533 4.76ZM114.31 1.79C113.05 1.79 112.1 2.11 111.46 2.75C110.84 3.39 110.39 4.48 110.11 6.02C110.11 6.06 110.05 6.08 109.93 6.08C109.83 6.08 109.78 6.06 109.78 6.02C109.86 5.3 109.95 4.36 110.05 3.2C110.15 2.04 110.2 1.17 110.2 0.59C110.2 0.49 110.25 0.44 110.35 0.44C110.47 0.44 110.53 0.49 110.53 0.59C110.53 1.03 111.07 1.25 112.15 1.25C113.85 1.31 115.86 1.34 118.18 1.34C119.36 1.34 120.61 1.32 121.93 1.28L123.97 1.25C124.69 1.25 125.22 1.2 125.56 1.1C125.92 0.999998 126.15 0.799999 126.25 0.499999C126.27 0.419999 126.33 0.379999 126.43 0.379999C126.53 0.379999 126.58 0.419999 126.58 0.499999C126.52 1.08 126.46 1.96 126.4 3.14C126.34 4.32 126.31 5.28 126.31 6.02C126.31 6.06 126.25 6.08 126.13 6.08C126.01 6.08 125.95 6.06 125.95 6.02C125.89 4.46 125.57 3.37 124.99 2.75C124.41 2.11 123.45 1.79 122.11 1.79C121.21 1.79 120.57 1.83 120.19 1.91C119.81 1.99 119.55 2.16 119.41 2.42C119.27 2.68 119.2 3.12 119.2 3.74V17.57C119.2 18.19 119.27 18.64 119.41 18.92C119.55 19.2 119.82 19.39 120.22 19.49C120.62 19.59 121.25 19.64 122.11 19.64C122.17 19.64 122.2 19.7 122.2 19.82C122.2 19.94 122.17 20 122.11 20C121.45 20 120.92 19.99 120.52 19.97L118.18 19.94L115.93 19.97C115.53 19.99 114.98 20 114.28 20C114.24 20 114.22 19.94 114.22 19.82C114.22 19.7 114.24 19.64 114.28 19.64C115.14 19.64 115.77 19.59 116.17 19.49C116.57 19.39 116.84 19.2 116.98 18.92C117.14 18.62 117.22 18.17 117.22 17.57V3.68C117.22 3.06 117.15 2.63 117.01 2.39C116.87 2.13 116.61 1.97 116.23 1.91C115.85 1.83 115.21 1.79 114.31 1.79ZM138.252 20.36C136.392 20.36 134.732 19.93 133.272 19.07C131.832 18.19 130.712 17.01 129.912 15.53C129.132 14.03 128.742 12.4 128.742 10.64C128.742 8.58 129.262 6.82 130.302 5.36C131.342 3.88 132.672 2.77 134.292 2.03C135.932 1.29 137.602 0.919999 139.302 0.919999C141.202 0.919999 142.872 1.37 144.312 2.27C145.752 3.15 146.852 4.32 147.612 5.78C148.392 7.24 148.782 8.79 148.782 10.43C148.782 12.25 148.302 13.92 147.342 15.44C146.382 16.96 145.092 18.16 143.472 19.04C141.872 19.92 140.132 20.36 138.252 20.36ZM139.302 19.73C140.662 19.73 141.882 19.4 142.962 18.74C144.062 18.08 144.922 17.11 145.542 15.83C146.182 14.55 146.502 13.03 146.502 11.27C146.502 9.39 146.152 7.72 145.452 6.26C144.752 4.8 143.762 3.66 142.482 2.84C141.222 2.02 139.742 1.61 138.042 1.61C135.842 1.61 134.122 2.32 132.882 3.74C131.642 5.16 131.022 7.11 131.022 9.59C131.022 11.47 131.372 13.19 132.072 14.75C132.772 16.29 133.752 17.51 135.012 18.41C136.272 19.29 137.702 19.73 139.302 19.73ZM171.361 1.25C171.421 1.25 171.451 1.31 171.451 1.43C171.451 1.55 171.421 1.61 171.361 1.61C170.521 1.61 169.911 1.84 169.531 2.3C169.151 2.76 168.961 3.51 168.961 4.55V20.36C168.961 20.4 168.911 20.43 168.811 20.45C168.711 20.47 168.641 20.46 168.601 20.42L154.801 3.71L154.531 3.41V16.73C154.531 17.77 154.711 18.52 155.071 18.98C155.451 19.42 156.051 19.64 156.871 19.64C156.931 19.64 156.961 19.7 156.961 19.82C156.961 19.94 156.931 20 156.871 20C156.371 20 155.991 19.99 155.731 19.97L154.231 19.94L152.701 19.97C152.421 19.99 152.011 20 151.471 20C151.431 20 151.411 19.94 151.411 19.82C151.411 19.7 151.431 19.64 151.471 19.64C152.331 19.64 152.941 19.42 153.301 18.98C153.661 18.52 153.841 17.77 153.841 16.73V2.69C153.061 1.97 152.271 1.61 151.471 1.61C151.411 1.61 151.381 1.55 151.381 1.43C151.381 1.31 151.411 1.25 151.471 1.25L152.581 1.28C152.821 1.3 153.151 1.31 153.571 1.31C154.011 1.31 154.371 1.3 154.651 1.28C154.931 1.26 155.151 1.25 155.311 1.25C155.471 1.25 155.581 1.29 155.641 1.37C155.721 1.43 155.841 1.58 156.001 1.82C156.241 2.18 156.481 2.51 156.721 2.81L168.271 17V4.55C168.271 3.51 168.091 2.76 167.731 2.3C167.391 1.84 166.811 1.61 165.991 1.61C165.951 1.61 165.931 1.55 165.931 1.43C165.931 1.31 165.951 1.25 165.991 1.25L167.161 1.28C167.761 1.32 168.251 1.34 168.631 1.34C168.991 1.34 169.491 1.32 170.131 1.28L171.361 1.25ZM186.288 15.53C186.288 15.49 186.328 15.47 186.408 15.47C186.468 15.47 186.518 15.48 186.558 15.5C186.618 15.52 186.648 15.55 186.648 15.59C186.468 16.85 186.378 18.17 186.378 19.55C186.378 19.71 186.338 19.83 186.258 19.91C186.198 19.97 186.078 20 185.898 20H173.328C173.288 20 173.268 19.94 173.268 19.82C173.268 19.7 173.288 19.64 173.328 19.64C174.088 19.64 174.638 19.59 174.978 19.49C175.338 19.39 175.578 19.2 175.698 18.92C175.838 18.62 175.908 18.17 175.908 17.57V3.68C175.908 3.08 175.838 2.64 175.698 2.36C175.578 2.08 175.338 1.89 174.978 1.79C174.638 1.67 174.088 1.61 173.328 1.61C173.288 1.61 173.268 1.55 173.268 1.43C173.268 1.31 173.288 1.25 173.328 1.25H185.388C185.568 1.25 185.658 1.34 185.658 1.52L185.718 5.21C185.718 5.27 185.668 5.31 185.568 5.33C185.468 5.33 185.408 5.3 185.388 5.24C185.328 4.18 185.008 3.36 184.428 2.78C183.848 2.18 183.078 1.88 182.118 1.88H180.288C179.588 1.88 179.068 1.94 178.728 2.06C178.408 2.16 178.178 2.35 178.038 2.63C177.918 2.89 177.858 3.29 177.858 3.83V9.92H181.518C182.478 9.92 183.158 9.76 183.558 9.44C183.978 9.12 184.188 8.58 184.188 7.82C184.188 7.78 184.248 7.76 184.368 7.76C184.488 7.76 184.548 7.78 184.548 7.82L184.518 10.25C184.518 10.83 184.528 11.27 184.548 11.57L184.578 13.01C184.578 13.05 184.518 13.07 184.398 13.07C184.278 13.07 184.218 13.05 184.218 13.01C184.218 12.13 183.998 11.5 183.558 11.12C183.138 10.74 182.428 10.55 181.428 10.55H177.858V17.45C177.858 18.01 177.918 18.42 178.038 18.68C178.158 18.94 178.378 19.12 178.698 19.22C179.018 19.32 179.518 19.37 180.198 19.37H182.598C183.558 19.37 184.358 19.03 184.998 18.35C185.638 17.67 186.068 16.73 186.288 15.53ZM201.603 16.07C202.923 16.21 203.923 16.68 204.603 17.48C205.303 18.28 205.653 19.21 205.653 20.27C205.653 21.25 205.333 22.25 204.693 23.27C204.053 24.31 203.073 25.27 201.753 26.15C200.453 27.03 198.853 27.73 196.953 28.25C196.873 28.27 196.803 28.22 196.743 28.1C196.703 28 196.723 27.94 196.803 27.92C199.203 27.18 200.913 26.13 201.933 24.77C202.973 23.41 203.493 22.02 203.493 20.6C203.493 19.52 203.213 18.61 202.653 17.87C202.093 17.13 201.243 16.76 200.103 16.76C199.583 16.76 199.103 16.82 198.663 16.94C198.603 16.96 198.553 16.91 198.513 16.79C198.473 16.67 198.483 16.6 198.543 16.58C200.103 16.18 201.203 15.62 201.843 14.9C202.503 14.18 202.833 13.2 202.833 11.96C202.833 10.94 202.613 10.14 202.173 9.56C201.753 8.98 201.103 8.69 200.223 8.69C198.443 8.69 197.213 9.88 196.533 12.26C196.513 12.28 196.473 12.29 196.413 12.29C196.233 12.29 196.153 12.25 196.173 12.17L197.283 7.79C197.323 7.75 197.363 7.73 197.403 7.73C197.463 7.73 197.523 7.75 197.583 7.79C197.643 7.81 197.663 7.83 197.643 7.85C197.603 8.01 197.583 8.12 197.583 8.18C197.583 8.52 197.753 8.69 198.093 8.69C198.273 8.69 198.573 8.62 198.993 8.48C199.813 8.18 200.553 8.03 201.213 8.03C202.333 8.03 203.203 8.37 203.823 9.05C204.443 9.71 204.753 10.51 204.753 11.45C204.753 12.43 204.473 13.35 203.913 14.21C203.353 15.05 202.583 15.67 201.603 16.07ZM215.783 9.68C216.783 10.24 217.593 10.74 218.213 11.18C218.833 11.62 219.353 12.17 219.773 12.83C220.213 13.49 220.433 14.26 220.433 15.14C220.433 16.12 220.143 17.01 219.563 17.81C219.003 18.61 218.233 19.24 217.253 19.7C216.293 20.16 215.243 20.39 214.103 20.39C212.943 20.39 211.923 20.17 211.043 19.73C210.163 19.27 209.473 18.67 208.973 17.93C208.493 17.17 208.253 16.36 208.253 15.5C208.253 14.32 208.643 13.21 209.423 12.17C210.223 11.13 211.203 10.31 212.363 9.71C211.583 9.23 210.983 8.73 210.563 8.21C210.143 7.69 209.933 7.08 209.933 6.38C209.933 5.6 210.173 4.94 210.653 4.4C211.133 3.86 211.733 3.46 212.453 3.2C213.173 2.92 213.893 2.78 214.613 2.78C215.413 2.78 216.113 2.94 216.713 3.26C217.333 3.56 217.803 3.95 218.123 4.43C218.463 4.91 218.633 5.41 218.633 5.93C218.633 6.57 218.383 7.22 217.883 7.88C217.403 8.52 216.703 9.12 215.783 9.68ZM213.983 3.26C213.283 3.26 212.703 3.46 212.243 3.86C211.803 4.26 211.583 4.8 211.583 5.48C211.583 6.32 211.903 7.03 212.543 7.61C213.183 8.17 214.153 8.8 215.453 9.5C215.953 9 216.323 8.51 216.563 8.03C216.803 7.53 216.923 6.99 216.923 6.41C216.923 5.47 216.643 4.71 216.083 4.13C215.543 3.55 214.843 3.26 213.983 3.26ZM214.943 19.85C216.043 19.85 216.943 19.51 217.643 18.83C218.363 18.15 218.723 17.24 218.723 16.1C218.723 15.18 218.503 14.39 218.063 13.73C217.623 13.07 217.083 12.53 216.443 12.11C215.823 11.67 214.983 11.17 213.923 10.61L212.783 9.98C211.963 10.5 211.323 11.17 210.863 11.99C210.423 12.81 210.203 13.72 210.203 14.72C210.203 15.62 210.403 16.46 210.803 17.24C211.203 18.02 211.763 18.65 212.483 19.13C213.203 19.61 214.023 19.85 214.943 19.85Z" fill="#FCFCFC" fill-opacity="0.8"/>
</svg>
