<svg width="126" height="60" viewBox="0 0 126 60" fill="none" xmlns="http://www.w3.org/2000/svg">
<path d="M92.3551 58.8353C87.0445 57.7128 82.1582 54.9581 78.3054 50.9096V50.873L78.1658 50.7059L45.5167 11.6363L45.5047 11.6219L45.4917 11.6083C42.062 7.99058 37.6946 5.52708 32.9384 4.53459C28.1819 3.54203 23.2552 4.06643 18.7816 6.03984C14.3086 8.01302 10.4924 11.3447 7.81035 15.6089C5.12852 19.8729 3.69921 24.8804 3.69921 30C3.69921 35.1196 5.12852 40.1271 7.81035 44.391C10.4924 48.6553 14.3086 51.987 18.7816 53.9602C23.2552 55.9336 28.1819 56.458 32.9384 55.4654C37.6946 54.4729 42.062 52.0094 45.4917 48.3917L45.5047 48.3781L45.5167 48.3637L50.1886 42.7741L50.1893 42.7733C50.47 42.4362 50.8576 42.2395 51.2629 42.2129C51.6679 42.1863 52.0726 42.3305 52.3873 42.6255C52.7034 42.9216 52.9023 43.3461 52.9294 43.8087C52.9564 44.2712 52.8084 44.7208 52.527 45.059C52.5269 45.0592 52.5268 45.0593 52.5266 45.0595L47.8014 50.7056L47.6615 50.8727V50.9092C43.8072 54.9456 38.924 57.6899 33.6192 58.8056C28.2643 59.9318 22.7144 59.3493 17.6692 57.13C12.6236 54.9104 8.30563 51.1515 5.26527 46.3227C2.22471 41.4936 0.6 35.8134 0.6 30C0.6 24.1866 2.22471 18.5064 5.26527 13.6773C8.30563 8.84846 12.6236 5.08958 17.6692 2.87004C22.7144 0.650723 28.2643 0.0682427 33.6192 1.19444C38.924 2.31011 43.8072 5.05435 47.6615 9.09079V9.12704L47.8011 9.29409L80.4502 48.3637L80.4622 48.3781L80.4751 48.3917C83.9049 52.0094 88.2723 54.4729 93.0285 55.4654C97.785 56.458 102.712 55.9336 107.185 53.9602C111.658 51.987 115.475 48.6553 118.157 44.391C120.838 40.1271 122.268 35.1196 122.268 30C122.268 24.8804 120.838 19.8729 118.157 15.6089C115.475 11.3447 111.658 8.01302 107.185 6.03984C102.712 4.06643 97.785 3.54203 93.0285 4.53459C88.2723 5.52708 83.9049 7.99058 80.4751 11.6083L80.4622 11.6219L80.4502 11.6363L75.7783 17.2259L75.7776 17.2267C75.6385 17.3938 75.4716 17.5279 75.2876 17.6233C75.1036 17.7187 74.9054 17.7739 74.704 17.7871C74.5027 17.8003 74.3003 17.7715 74.1079 17.7014C73.9155 17.6313 73.7357 17.5209 73.5796 17.3745C73.4233 17.2281 73.2938 17.0487 73.2002 16.8453C73.1065 16.6419 73.0509 16.4196 73.0375 16.1913C73.0242 15.9629 73.0535 15.7344 73.1231 15.5192C73.1927 15.3043 73.3008 15.1081 73.4397 14.9412C73.4399 14.9409 73.4401 14.9407 73.4402 14.9405L78.1655 9.29443L78.3054 9.12729V9.0904C82.1582 5.0419 87.0445 2.28719 92.3551 1.16474C97.7155 0.0317658 103.273 0.611467 108.325 2.83219C113.377 5.05313 117.7 8.81729 120.742 13.6535C123.784 18.49 125.406 24.1789 125.4 29.9993V30.0007C125.406 35.8211 123.784 41.51 120.742 46.3465C117.7 51.1827 113.377 54.9469 108.325 57.1678C103.273 59.3885 97.7155 59.9682 92.3551 58.8353Z" fill="url(#paint0_linear_154_1407)" stroke="#121212" stroke-width="1.2"/>
<defs>
<linearGradient id="paint0_linear_154_1407" x1="63" y1="0" x2="63" y2="60" gradientUnits="userSpaceOnUse">
<stop offset="0.00312487" stop-color="#F7DF85" stop-opacity="0.6"/>
<stop offset="1" stop-color="#9F813B"/>
</linearGradient>
</defs>
</svg>
