<svg width="126" height="61" viewBox="0 0 126 61" fill="none" xmlns="http://www.w3.org/2000/svg">
<path d="M92.3551 59.5091C87.0445 58.3866 82.1582 55.6319 78.3054 51.5834V51.5468L78.1658 51.3797L45.5167 12.3102L45.5047 12.2957L45.4917 12.2821C42.062 8.66441 37.6946 6.2009 32.9384 5.20841C28.1819 4.21586 23.2552 4.74026 18.7816 6.71367C14.3086 8.68685 10.4924 12.0185 7.81035 16.2828C5.12852 20.5467 3.69921 25.5542 3.69921 30.6738C3.69921 35.7934 5.12852 40.8009 7.81035 45.0649C10.4924 49.3291 14.3086 52.6608 18.7816 54.634C23.2552 56.6074 28.1819 57.1318 32.9384 56.1392C37.6946 55.1468 42.062 52.6832 45.4917 49.0655L45.5047 49.0519L45.5167 49.0375L50.1886 43.4479L50.1893 43.4471C50.47 43.1101 50.8576 42.9133 51.2629 42.8867C51.6679 42.8601 52.0726 43.0044 52.3873 43.2993C52.7034 43.5954 52.9023 44.0199 52.9294 44.4826C52.9564 44.9451 52.8084 45.3947 52.527 45.7328C52.5269 45.733 52.5268 45.7331 52.5266 45.7333L47.8014 51.3794L47.6615 51.5465V51.583C43.8072 55.6195 38.924 58.3637 33.6192 59.4794C28.2643 60.6056 22.7144 60.0231 17.6692 57.8038C12.6236 55.5842 8.30563 51.8254 5.26527 46.9966C2.22471 42.1674 0.6 36.4872 0.6 30.6738C0.6 24.8605 2.22471 19.1802 5.26527 14.3511C8.30563 9.52228 12.6236 5.76341 17.6692 3.54387C22.7144 1.32455 28.2643 0.742071 33.6192 1.86826C38.924 2.98394 43.8072 5.72818 47.6615 9.76462V9.80087L47.8011 9.96792L80.4502 49.0375L80.4622 49.0519L80.4751 49.0655C83.9049 52.6832 88.2723 55.1468 93.0285 56.1392C97.785 57.1318 102.712 56.6074 107.185 54.634C111.658 52.6608 115.475 49.3291 118.157 45.0649C120.838 40.8009 122.268 35.7934 122.268 30.6738C122.268 25.5542 120.838 20.5467 118.157 16.2828C115.475 12.0185 111.658 8.68685 107.185 6.71367C102.712 4.74026 97.785 4.21586 93.0285 5.20841C88.2723 6.2009 83.9049 8.66441 80.4751 12.2821L80.4622 12.2957L80.4502 12.3101L75.7783 17.8997L75.7776 17.9006C75.6385 18.0676 75.4716 18.2018 75.2876 18.2971C75.1036 18.3925 74.9054 18.4477 74.704 18.4609C74.5027 18.4742 74.3003 18.4453 74.1079 18.3752C73.9155 18.3051 73.7357 18.1947 73.5796 18.0484C73.4233 17.902 73.2938 17.7225 73.2002 17.5192C73.1065 17.3158 73.0509 17.0935 73.0375 16.8651C73.0242 16.6367 73.0535 16.4082 73.1231 16.193C73.1927 15.9781 73.3008 15.7819 73.4397 15.615C73.4399 15.6148 73.4401 15.6146 73.4402 15.6143L78.1655 9.96826L78.3054 9.80112V9.76422C82.1582 5.71572 87.0445 2.96102 92.3551 1.83856C97.7155 0.705594 103.273 1.2853 108.325 3.50602C113.377 5.72696 117.7 9.49112 120.742 14.3273C123.784 19.1638 125.406 24.8527 125.4 30.6732V30.6745C125.406 36.4949 123.784 42.1838 120.742 47.0203C117.7 51.8565 113.377 55.6207 108.325 57.8416C103.273 60.0624 97.7155 60.6421 92.3551 59.5091Z" fill="url(#paint0_linear_2_78)" stroke="#121212" stroke-width="1.2"/>
<defs>
<linearGradient id="paint0_linear_2_78" x1="63" y1="0.673828" x2="63" y2="60.6738" gradientUnits="userSpaceOnUse">
<stop stop-color="#F0F0EC"/>
<stop offset="1" stop-color="#E2E2DF" stop-opacity="0.51"/>
</linearGradient>
</defs>
</svg>
