<svg width="80" height="81" viewBox="0 0 80 81" fill="none" xmlns="http://www.w3.org/2000/svg">
<path d="M76.5363 18.4658C77.0307 18.0303 77.7328 17.9289 78.3209 18.2001L78.3261 18.2025C78.9163 18.4797 79.3018 19.085 79.3 19.7567C79.2994 19.8868 79.2988 20.0206 79.2983 20.1579C79.2867 22.9605 79.2689 27.2415 78.6018 31.5556C77.8983 36.1049 76.4916 40.5499 73.738 43.3398L72.671 44.4198L72.6705 44.4203C69.1125 48.0288 64.4502 50.0077 59.537 50.0077C56.4693 50.0077 52.7905 49.0608 50.123 47.6203L49.6624 47.3716L49.2936 47.7431L20.0249 77.2259L20.0234 77.2274C18.216 79.0591 15.848 79.9738 13.4808 79.9738C11.1122 79.9738 8.74413 79.0591 6.93549 77.2272L3.41508 73.6606C-0.205069 69.9918 -0.204958 64.0421 3.415 60.3747L3.41664 60.373L32.2603 30.9551L32.5844 30.6246L32.4071 30.197C29.4795 23.1346 30.4912 13.8789 35.9812 8.27815L37.0601 7.20757L37.0601 7.2076L37.0654 7.20227C39.5914 4.64155 43.7571 3.16414 48.2659 2.34139C52.7491 1.52331 57.4443 1.37383 60.9104 1.37383H61.5892C62.2487 1.37383 62.8345 1.74453 63.0992 2.33953C63.3691 2.94629 63.2656 3.63112 62.8297 4.13424C62.8297 4.13426 62.8297 4.13427 62.8297 4.13429L51.5671 17.1323L51.1457 17.6187L51.5951 18.0794L62.9701 29.7412L63.439 30.2219L63.9388 29.7733L76.5345 18.4674C76.5351 18.4669 76.5357 18.4663 76.5363 18.4658ZM70.3525 41.9776L71.2648 40.9126C71.5096 40.6627 71.7409 40.3914 71.9596 40.1014L72.2695 39.7396H72.2195C73.3588 38.0752 74.1303 35.8877 74.6639 33.6394C75.3433 30.7773 75.6628 27.7009 75.8158 25.2091L75.9207 23.5012L74.6488 24.6459L64.4515 33.8237C64.4508 33.8243 64.4501 33.825 64.4494 33.8256C63.7825 34.4143 62.7886 34.3757 62.1721 33.7413L62.1711 33.7403L47.6793 18.884L47.1782 19.3728L47.6793 18.884C47.0604 18.2496 47.0302 17.2351 47.6122 16.5629C47.6123 16.5629 47.6123 16.5628 47.6123 16.5628L56.779 5.98393L57.8703 4.72446L56.207 4.82685C53.8566 4.97152 50.5418 5.28955 47.3946 5.99141C44.2856 6.68476 41.1886 7.78341 39.4122 9.58398C39.4119 9.58425 39.4116 9.58452 39.4114 9.58479L38.3354 10.67L38.3327 10.6727C36.315 12.7303 35.1468 15.5213 34.6318 18.3894C34.1164 21.2597 34.2451 24.2589 34.8712 26.7892L35.0028 27.3211H35.0132C35.4182 28.7534 36.0209 30.1444 36.8471 31.45L5.93981 62.9581C5.93938 62.9586 5.93895 62.959 5.93852 62.9594C3.73019 65.2003 3.73062 68.8382 5.94131 71.0785L5.94136 71.0785L9.46037 74.6438C9.46042 74.6439 9.46047 74.6439 9.46053 74.644C10.5322 75.7304 11.9622 76.3308 13.4805 76.3308C14.9986 76.3308 16.4273 75.7305 17.4978 74.6442C17.498 74.644 17.4982 74.6437 17.4985 74.6435L49.072 42.8276C50.2951 43.854 51.6407 44.682 53.0805 45.2794C54.9219 46.0458 57.5808 46.4097 59.5368 46.4097C63.5464 46.4097 67.3836 44.9908 70.3193 42.0138L70.3365 41.9963L70.3525 41.9776Z" fill="url(#paint0_linear_2_75)" stroke="#121212" stroke-width="1.4"/>
<defs>
<linearGradient id="paint0_linear_2_75" x1="40" y1="0.673828" x2="40" y2="80.6738" gradientUnits="userSpaceOnUse">
<stop stop-color="#F0F0EC"/>
<stop offset="0.675" stop-color="#E2E2DF" stop-opacity="0.51"/>
</linearGradient>
</defs>
</svg>
