<svg width="79" height="79" viewBox="0 0 79 79" fill="none" xmlns="http://www.w3.org/2000/svg">
<path d="M75.5853 17.5762C76.0709 17.1483 76.7606 17.0488 77.3382 17.3151L77.3433 17.3175C77.9231 17.5897 78.3018 18.1844 78.3 18.8444C78.2994 18.9728 78.2988 19.1048 78.2983 19.2404C78.2868 22.008 78.2693 26.2349 77.6107 30.4944C76.916 34.9864 75.5272 39.3735 72.8101 42.1265L71.7564 43.193L71.7559 43.1935C68.244 46.7553 63.6421 48.7085 58.7928 48.7085C55.7649 48.7085 52.1335 47.7738 49.5006 46.3519L49.04 46.1032L48.6712 46.4747L19.7684 75.589L19.7669 75.5905C17.9838 77.3976 15.6477 78.3 13.3123 78.3C10.9756 78.3 8.63935 77.3976 6.85503 75.5903L3.37862 72.0683C-0.192916 68.4487 -0.192804 62.5789 3.37854 58.9607L3.38018 58.959L31.8633 29.9089L32.1874 29.5784L32.0101 29.1508C29.1202 22.1793 30.1192 13.0432 35.5376 7.51543L36.603 6.45828L36.603 6.45831L36.6083 6.45298C39.1008 3.92625 43.2122 2.46771 47.6642 1.65532C52.0905 0.847608 56.7265 0.7 60.1491 0.7H60.8193C61.4673 0.7 62.0425 1.06414 62.3024 1.64844C62.5676 2.24449 62.4659 2.91714 62.0377 3.41143C62.0377 3.41144 62.0377 3.41146 62.0377 3.41147L50.9159 16.247L50.4945 16.7334L50.9439 17.1941L62.1767 28.7101L62.6456 29.1909L63.1454 28.7423L75.5836 17.5777C75.5841 17.5772 75.5847 17.5767 75.5853 17.5762ZM69.4797 40.7932L70.3804 39.7417C70.6223 39.4948 70.8508 39.2268 71.0669 38.9403L71.3852 38.5687H71.3333C72.4542 36.9254 73.2135 34.7699 73.7391 32.5555C74.4102 29.7285 74.7257 26.69 74.8769 24.2291L74.9817 22.5212L73.7099 23.6659L63.6401 32.7289C63.6395 32.7295 63.6388 32.7301 63.6382 32.7306C62.9831 33.3091 62.0068 33.2712 61.4012 32.648L61.4002 32.647L47.0895 17.9764L46.5884 18.4652L47.0895 17.9764C46.4816 17.3532 46.4519 16.3566 47.0237 15.6962C47.0237 15.6962 47.0238 15.6961 47.0238 15.6961L56.0759 5.24946L57.1672 3.98999L55.5038 4.09238C53.1826 4.23525 49.9088 4.54934 46.8003 5.24257C43.7299 5.92729 40.6695 7.01262 38.9133 8.79262C38.913 8.79289 38.9128 8.79316 38.9125 8.79343L37.85 9.86502L37.8473 9.86778C35.8533 11.9012 34.699 14.6592 34.1903 17.4926C33.6811 20.3282 33.8083 23.2912 34.4268 25.791L34.5584 26.3229H34.5689C34.9684 27.7337 35.5622 29.1039 36.3754 30.3903L5.85933 61.4996C5.85913 61.4998 5.85893 61.5 5.85873 61.5002C3.67397 63.7164 3.67417 67.3148 5.86081 69.5307L5.86087 69.5308L9.33588 73.0515C9.33594 73.0516 9.33599 73.0516 9.33604 73.0517C10.396 74.1262 11.8103 74.72 13.312 74.72C14.8129 74.72 16.2256 74.1267 17.2841 73.053C17.2848 73.0524 17.2854 73.0518 17.286 73.0512L48.4592 41.6387C49.666 42.6504 50.9934 43.4668 52.4136 44.0561C54.2335 44.8135 56.8604 45.1729 58.7926 45.1729C62.7542 45.1729 66.5457 43.771 69.4465 40.8293L69.4638 40.8119L69.4797 40.7932Z" fill="url(#paint0_linear_154_1392)" stroke="#121212" stroke-width="1.4"/>
<defs>
<linearGradient id="paint0_linear_154_1392" x1="39.5" y1="0" x2="39.5" y2="79" gradientUnits="userSpaceOnUse">
<stop offset="0.00312487" stop-color="#F7DF85" stop-opacity="0.6"/>
<stop offset="1" stop-color="#9F813B"/>
</linearGradient>
</defs>
</svg>
