<svg width="55" height="70" viewBox="0 0 55 70" fill="none" xmlns="http://www.w3.org/2000/svg">
<path d="M41.1637 12.4356C37.2232 7.89553 32.7998 3.7982 27.9719 0.216132C27.7488 0.0749509 27.4903 0 27.2264 0C26.9624 0 26.7039 0.0749509 26.4809 0.216132C21.653 3.7982 17.2296 7.89553 13.2891 12.4356C4.60256 22.4186 0 32.9202 0 42.7736C0 49.9945 2.86848 56.9196 7.97442 62.0256C13.0804 67.1315 20.0055 70 27.2264 70C34.4473 70 41.3724 67.1315 46.4783 62.0256C51.5843 56.9196 54.4528 49.9945 54.4528 42.7736C54.4528 32.9202 49.8502 22.4186 41.1637 12.4356ZM27.2264 67.407C20.6958 67.3984 14.4352 64.8004 9.81741 60.1826C5.19961 55.5648 2.60156 49.3042 2.59299 42.7736C2.59299 31.1376 9.46441 20.798 15.2014 14.1859C18.8117 10.023 22.8413 6.24322 27.2264 2.90636C31.6115 6.24322 35.6411 10.023 39.2514 14.1859C44.9884 20.798 51.8598 31.1376 51.8598 42.7736C51.8512 49.3042 49.2531 55.5648 44.6353 60.1826C40.0175 64.8004 33.7569 67.3984 27.2264 67.407ZM43.8539 45.5935C43.2663 49.0331 41.6255 52.2055 39.1581 54.6729C36.6907 57.1403 33.5183 58.7811 30.0787 59.3687H29.8518C29.5494 59.3658 29.2576 59.2573 29.0267 59.062C28.7959 58.8667 28.6406 58.5968 28.5877 58.2991C28.5553 58.1305 28.5576 57.9571 28.5944 57.7893C28.6312 57.6216 28.7019 57.4632 28.8019 57.3237C28.902 57.1842 29.0295 57.0665 29.1766 56.9779C29.3236 56.8892 29.4872 56.8315 29.6573 56.8082C32.5632 56.3129 35.2436 54.9273 37.328 52.8428C39.4125 50.7584 40.7981 48.078 41.2933 45.1721C41.3209 45.0039 41.3813 44.8428 41.4712 44.698C41.561 44.5532 41.6786 44.4275 41.8171 44.3282C41.9555 44.2288 42.1122 44.1578 42.2782 44.119C42.4442 44.0803 42.6162 44.0747 42.7843 44.1025C42.9525 44.1301 43.1136 44.1905 43.2584 44.2803C43.4032 44.3702 43.5289 44.4877 43.6282 44.6262C43.7276 44.7647 43.7987 44.9214 43.8374 45.0874C43.8761 45.2534 43.8817 45.4253 43.8539 45.5935Z" fill="url(#paint0_linear_154_1396)"/>
<defs>
<linearGradient id="paint0_linear_154_1396" x1="27.2264" y1="0" x2="27.2264" y2="70" gradientUnits="userSpaceOnUse">
<stop offset="0.00312487" stop-color="#F7DF85" stop-opacity="0.6"/>
<stop offset="1" stop-color="#9F813B"/>
</linearGradient>
</defs>
</svg>
