<svg width="55" height="71" viewBox="0 0 55 71" fill="none" xmlns="http://www.w3.org/2000/svg">
<path d="M41.1637 13.1094C37.2232 8.56935 32.7998 4.47203 27.9719 0.88996C27.7488 0.748779 27.4903 0.673828 27.2264 0.673828C26.9624 0.673828 26.7039 0.748779 26.4809 0.88996C21.653 4.47203 17.2296 8.56935 13.2891 13.1094C4.60256 23.0924 0 33.5941 0 43.4474C0 50.6683 2.86848 57.5935 7.97442 62.6994C13.0804 67.8053 20.0055 70.6738 27.2264 70.6738C34.4473 70.6738 41.3724 67.8053 46.4783 62.6994C51.5843 57.5935 54.4528 50.6683 54.4528 43.4474C54.4528 33.5941 49.8502 23.0924 41.1637 13.1094ZM27.2264 68.0808C20.6958 68.0723 14.4352 65.4742 9.81741 60.8564C5.19961 56.2386 2.60156 49.978 2.59299 43.4474C2.59299 31.8114 9.46441 21.4718 15.2014 14.8597C18.8117 10.6968 22.8413 6.91705 27.2264 3.58019C31.6115 6.91705 35.6411 10.6968 39.2514 14.8597C44.9884 21.4718 51.8598 31.8114 51.8598 43.4474C51.8512 49.978 49.2531 56.2386 44.6353 60.8564C40.0175 65.4742 33.7569 68.0723 27.2264 68.0808ZM43.8539 46.2673C43.2663 49.7069 41.6255 52.8793 39.1581 55.3467C36.6907 57.8142 33.5183 59.4549 30.0787 60.0426H29.8518C29.5494 60.0397 29.2576 59.9312 29.0267 59.7359C28.7959 59.5405 28.6406 59.2707 28.5877 58.973C28.5553 58.8043 28.5576 58.6309 28.5944 58.4632C28.6312 58.2955 28.7019 58.137 28.8019 57.9975C28.902 57.858 29.0295 57.7403 29.1766 57.6517C29.3236 57.5631 29.4872 57.5053 29.6573 57.482C32.5632 56.9867 35.2436 55.6011 37.328 53.5167C39.4125 51.4322 40.7981 48.7519 41.2933 45.8459C41.3209 45.6777 41.3813 45.5166 41.4712 45.3718C41.561 45.227 41.6786 45.1013 41.8171 45.002C41.9555 44.9027 42.1122 44.8316 42.2782 44.7929C42.4442 44.7542 42.6162 44.7485 42.7843 44.7763C42.9525 44.8039 43.1136 44.8643 43.2584 44.9542C43.4032 45.044 43.5289 45.1616 43.6282 45.3C43.7276 45.4385 43.7987 45.5952 43.8374 45.7612C43.8761 45.9272 43.8817 46.0992 43.8539 46.2673Z" fill="url(#paint0_linear_2_63)"/>
<defs>
<linearGradient id="paint0_linear_2_63" x1="27.2264" y1="0.673828" x2="27.2264" y2="70.6738" gradientUnits="userSpaceOnUse">
<stop stop-color="#F0F0EC"/>
<stop offset="1" stop-color="#E2E2DF" stop-opacity="0.51"/>
</linearGradient>
</defs>
</svg>
