<svg width="57" height="105" viewBox="0 0 57 105" fill="none" xmlns="http://www.w3.org/2000/svg">
<mask id="path-1-outside-1_154_1400" maskUnits="userSpaceOnUse" x="0" y="-0.336914" width="57" height="106" fill="black">
<rect fill="white" y="-0.336914" width="57" height="106"/>
<path fill-rule="evenodd" clip-rule="evenodd" d="M32.5474 9.29274C32.5474 6.52032 33.2036 2.77137 35.9739 2.66529C38.8479 2.55525 39.7001 6.58908 39.7001 9.4651V60.7434H41.4175V67.8961H30.2593V60.7434H32.5474V9.29274ZM30.1159 67.8963C26.3011 68.8977 18.4426 73.3896 17.5271 83.3461C16.6116 93.3027 7.13184 98.4622 2.50642 99.7973C1.83883 100.799 1.30477 102.773 4.50918 102.658C7.71359 102.544 28.9237 102.611 39.1283 102.658C43.3722 101.8 52.3179 97.2796 54.1489 86.0641C55.98 74.8487 46.424 69.2791 41.4171 67.8963H30.1159Z"/>
</mask>
<path d="M35.9739 2.66529L35.8974 0.666755L35.9739 2.66529ZM39.7001 60.7434H37.7001V62.7434H39.7001V60.7434ZM41.4175 60.7434H43.4175V58.7434H41.4175V60.7434ZM41.4175 67.8961V69.8961H43.4175V67.8961H41.4175ZM30.2593 67.8961H28.2593V69.8961H30.2593V67.8961ZM30.2593 60.7434V58.7434H28.2593V60.7434H30.2593ZM32.5474 60.7434V62.7434H34.5474V60.7434H32.5474ZM17.5271 83.3461L19.5187 83.5293L17.5271 83.3461ZM30.1159 67.8963V65.8963H29.8577L29.6081 65.9618L30.1159 67.8963ZM2.50642 99.7973L1.95175 97.8758L1.2484 98.0788L0.842322 98.6879L2.50642 99.7973ZM4.50918 102.658L4.58056 104.657H4.58056L4.50918 102.658ZM39.1283 102.658L39.1189 104.658L39.3239 104.659L39.5247 104.619L39.1283 102.658ZM54.1489 86.0641L52.1751 85.7419L54.1489 86.0641ZM41.4171 67.8963L41.9496 65.9685L41.6882 65.8963H41.4171V67.8963ZM35.8974 0.666755C33.3721 0.76345 32.0089 2.59918 31.3606 4.24685C30.7174 5.88166 30.5474 7.80022 30.5474 9.29274H34.5474C34.5474 8.01284 34.7054 6.67072 35.0829 5.71142C35.4553 4.76499 35.8054 4.67321 36.0505 4.66383L35.8974 0.666755ZM41.7001 9.4651C41.7001 7.8839 41.4728 5.86066 40.757 4.16688C40.0452 2.48275 38.555 0.564996 35.8974 0.666755L36.0505 4.66383C36.2668 4.65554 36.6396 4.69968 37.0725 5.72396C37.5013 6.7386 37.7001 8.17028 37.7001 9.4651H41.7001ZM41.7001 60.7434V9.4651H37.7001V60.7434H41.7001ZM41.4175 58.7434H39.7001V62.7434H41.4175V58.7434ZM43.4175 67.8961V60.7434H39.4175V67.8961H43.4175ZM30.2593 69.8961H41.4175V65.8961H30.2593V69.8961ZM28.2593 60.7434V67.8961H32.2593V60.7434H28.2593ZM32.5474 58.7434H30.2593V62.7434H32.5474V58.7434ZM30.5474 9.29274V60.7434H34.5474V9.29274H30.5474ZM19.5187 83.5293C20.3308 74.6972 27.3035 70.7023 30.6237 69.8307L29.6081 65.9618C25.2987 67.093 16.5545 72.0819 15.5355 83.163L19.5187 83.5293ZM3.06109 101.719C5.62362 100.979 9.42131 99.2239 12.731 96.3046C16.0623 93.3662 19.0019 89.1491 19.5187 83.5293L15.5355 83.163C15.1367 87.4997 12.8788 90.8406 10.085 93.3048C7.26951 95.7882 4.01463 97.2803 1.95175 97.8758L3.06109 101.719ZM4.4378 100.66C4.13525 100.671 3.92249 100.655 3.7815 100.633C3.64004 100.611 3.59295 100.587 3.60606 100.593C3.62421 100.601 3.70027 100.642 3.78646 100.739C3.87469 100.838 3.93587 100.954 3.96947 101.065C4.00094 101.169 4.00077 101.242 3.99966 101.266C3.9986 101.289 3.99624 101.28 4.00813 101.239C4.01965 101.2 4.03973 101.146 4.07039 101.082C4.1008 101.019 4.13587 100.959 4.17052 100.907L0.842322 98.6879C0.585374 99.0734 0.327451 99.5693 0.166057 100.126C0.00906658 100.668 -0.101184 101.427 0.142132 102.228C0.409999 103.109 1.0339 103.801 1.89495 104.208C2.68494 104.582 3.60973 104.692 4.58056 104.657L4.4378 100.66ZM39.1376 100.658C28.9692 100.611 7.69521 100.543 4.43779 100.66L4.58056 104.657C7.73197 104.545 28.8783 104.611 39.1189 104.658L39.1376 100.658ZM52.1751 85.7419C50.5183 95.8899 42.4363 99.9489 38.7318 100.698L39.5247 104.619C44.3082 103.651 54.1174 98.6693 56.1228 86.3864L52.1751 85.7419ZM40.8847 69.8241C43.1095 70.4386 46.4033 72.0143 48.8893 74.662C51.3123 77.2427 52.9767 80.8322 52.1751 85.7419L56.1228 86.3864C57.1523 80.0807 54.9542 75.2777 51.8053 71.924C48.7193 68.6373 44.7316 66.7368 41.9496 65.9685L40.8847 69.8241ZM30.1159 69.8963H41.4171V65.8963H30.1159V69.8963Z" fill="url(#paint0_linear_154_1400)" mask="url(#path-1-outside-1_154_1400)"/>
<defs>
<linearGradient id="paint0_linear_154_1400" x1="28.1894" y1="2.66309" x2="28.1894" y2="102.663" gradientUnits="userSpaceOnUse">
<stop offset="0.00312487" stop-color="#F7DF85" stop-opacity="0.6"/>
<stop offset="1" stop-color="#9F813B"/>
</linearGradient>
</defs>
</svg>
