<svg width="57" height="105" viewBox="0 0 57 105" fill="none" xmlns="http://www.w3.org/2000/svg">
<mask id="path-1-outside-1_2_66" maskUnits="userSpaceOnUse" x="0" y="-0.664062" width="57" height="106" fill="black">
<rect fill="white" y="-0.664062" width="57" height="106"/>
<path fill-rule="evenodd" clip-rule="evenodd" d="M32.5474 8.96559C32.5474 6.19318 33.2036 2.44422 35.9739 2.33814C38.8479 2.2281 39.7001 6.26193 39.7001 9.13795V60.4163H41.4175V67.569H30.2593V60.4163H32.5474V8.96559ZM30.1159 67.5691C26.3011 68.5705 18.4426 73.0624 17.5271 83.019C16.6116 92.9755 7.13184 98.135 2.50642 99.4702C1.83883 100.472 1.30477 102.446 4.50918 102.331C7.71359 102.217 28.9237 102.284 39.1283 102.331C43.3722 101.473 52.3179 96.9524 54.1489 85.737C55.98 74.5216 46.424 68.952 41.4171 67.5691H30.1159Z"/>
</mask>
<path d="M35.9739 2.33814L35.8974 0.339606L35.9739 2.33814ZM39.7001 60.4163H37.7001V62.4163H39.7001V60.4163ZM41.4175 60.4163H43.4175V58.4163H41.4175V60.4163ZM41.4175 67.569V69.569H43.4175V67.569H41.4175ZM30.2593 67.569H28.2593V69.569H30.2593V67.569ZM30.2593 60.4163V58.4163H28.2593V60.4163H30.2593ZM32.5474 60.4163V62.4163H34.5474V60.4163H32.5474ZM17.5271 83.019L19.5187 83.2021L17.5271 83.019ZM30.1159 67.5691V65.5691H29.8577L29.6081 65.6347L30.1159 67.5691ZM2.50642 99.4702L1.95175 97.5486L1.2484 97.7517L0.842322 98.3608L2.50642 99.4702ZM4.50918 102.331L4.58056 104.33H4.58056L4.50918 102.331ZM39.1283 102.331L39.1189 104.331L39.3239 104.332L39.5247 104.292L39.1283 102.331ZM54.1489 85.737L52.1751 85.4147L54.1489 85.737ZM41.4171 67.5691L41.9496 65.6413L41.6882 65.5691H41.4171V67.5691ZM35.8974 0.339606C33.3721 0.436301 32.0089 2.27203 31.3606 3.9197C30.7174 5.55451 30.5474 7.47307 30.5474 8.96559H34.5474C34.5474 7.68569 34.7054 6.34357 35.0829 5.38428C35.4553 4.43784 35.8054 4.34606 36.0505 4.33668L35.8974 0.339606ZM41.7001 9.13795C41.7001 7.55675 41.4728 5.53351 40.757 3.83973C40.0452 2.1556 38.555 0.237847 35.8974 0.339606L36.0505 4.33668C36.2668 4.32839 36.6396 4.37253 37.0725 5.39682C37.5013 6.41145 37.7001 7.84314 37.7001 9.13795H41.7001ZM41.7001 60.4163V9.13795H37.7001V60.4163H41.7001ZM41.4175 58.4163H39.7001V62.4163H41.4175V58.4163ZM43.4175 67.569V60.4163H39.4175V67.569H43.4175ZM30.2593 69.569H41.4175V65.569H30.2593V69.569ZM28.2593 60.4163V67.569H32.2593V60.4163H28.2593ZM32.5474 58.4163H30.2593V62.4163H32.5474V58.4163ZM30.5474 8.96559V60.4163H34.5474V8.96559H30.5474ZM19.5187 83.2021C20.3308 74.37 27.3035 70.3751 30.6237 69.5036L29.6081 65.6347C25.2987 66.7659 16.5545 71.7548 15.5355 82.8358L19.5187 83.2021ZM3.06109 101.392C5.62362 100.652 9.42131 98.8968 12.731 95.9775C16.0623 93.0391 19.0019 88.8219 19.5187 83.2021L15.5355 82.8358C15.1367 87.1726 12.8788 90.5134 10.085 92.9777C7.26951 95.4611 4.01463 96.9532 1.95175 97.5486L3.06109 101.392ZM4.4378 100.333C4.13525 100.343 3.92249 100.328 3.7815 100.306C3.64004 100.284 3.59295 100.259 3.60606 100.266C3.62421 100.274 3.70027 100.315 3.78646 100.412C3.87469 100.511 3.93587 100.627 3.96947 100.738C4.00094 100.842 4.00077 100.915 3.99966 100.939C3.9986 100.961 3.99624 100.953 4.00813 100.912C4.01965 100.872 4.03973 100.818 4.07039 100.755C4.1008 100.692 4.13587 100.632 4.17052 100.58L0.842322 98.3608C0.585374 98.7462 0.327451 99.2421 0.166057 99.7993C0.00906658 100.341 -0.101184 101.099 0.142132 101.9C0.409999 102.782 1.0339 103.474 1.89495 103.881C2.68494 104.255 3.60973 104.365 4.58056 104.33L4.4378 100.333ZM39.1376 100.331C28.9692 100.284 7.69521 100.216 4.43779 100.333L4.58056 104.33C7.73197 104.217 28.8783 104.283 39.1189 104.331L39.1376 100.331ZM52.1751 85.4147C50.5183 95.5627 42.4363 99.6217 38.7318 100.371L39.5247 104.292C44.3082 103.324 54.1174 98.3422 56.1228 86.0593L52.1751 85.4147ZM40.8847 69.4969C43.1095 70.1114 46.4033 71.6872 48.8893 74.3348C51.3123 76.9155 52.9767 80.5051 52.1751 85.4147L56.1228 86.0593C57.1523 79.7535 54.9542 74.9505 51.8053 71.5969C48.7193 68.3102 44.7316 66.4097 41.9496 65.6413L40.8847 69.4969ZM30.1159 69.5691H41.4171V65.5691H30.1159V69.5691Z" fill="url(#paint0_linear_2_66)" mask="url(#path-1-outside-1_2_66)"/>
<defs>
<linearGradient id="paint0_linear_2_66" x1="28.1894" y1="2.33594" x2="28.1894" y2="102.336" gradientUnits="userSpaceOnUse">
<stop stop-color="#F0F0EC"/>
<stop offset="1" stop-color="#E2E2DF" stop-opacity="0.51"/>
</linearGradient>
</defs>
</svg>
